<svg version="1.1" id="Layer_1" xmlns="http://www.w3.org/2000/svg" xmlns:xlink="http://www.w3.org/1999/xlink" x="0px" y="0px"
	 width="100%" viewBox="0 0 544 152" enable-background="new 0 0 544 152" xml:space="preserve">
<path fill="#FEFEFE" opacity="1.000000" stroke="none" 
	d="
M388.000000,153.000000 
	C260.166687,153.000000 132.833359,152.980820 5.500152,153.094269 
	C1.750765,153.097610 0.891404,152.251129 0.902903,148.499771 
	C1.050049,100.500237 1.034634,52.500004 0.916751,4.500300 
	C0.909426,1.517559 1.517908,0.917594 4.499944,0.919099 
	C183.499878,1.009427 362.499847,1.009417 541.499756,0.919162 
	C544.481018,0.917659 545.090515,1.516481 545.083252,4.500009 
	C544.965515,52.833050 544.965576,101.166542 545.083191,149.499588 
	C545.090454,152.481934 544.483582,153.089920 541.500061,153.083160 
	C490.500214,152.967331 439.500092,153.000000 388.000000,153.000000 
z"/>
<path fill="#03A3E9" opacity="1.000000" stroke="none" 
	d="
M160.413147,83.251862 
	C161.314255,73.978264 160.316238,65.163559 160.354492,56.345367 
	C160.364670,53.999321 159.280930,52.395950 157.261292,51.060287 
	C152.622711,47.992630 152.900116,44.711639 157.981522,42.485355 
	C162.129700,40.667934 166.569916,39.932644 171.105865,39.957752 
	C176.245285,39.986202 181.461746,39.324051 186.424957,41.256683 
	C190.870285,42.987652 191.838531,47.487297 187.908432,50.067711 
	C182.637100,53.528759 184.228546,58.454002 184.120148,63.091049 
	C184.089874,64.386452 185.220047,65.102768 186.317734,65.562424 
	C186.911484,65.811066 187.645782,65.982979 188.262115,65.875771 
	C191.631332,65.289658 195.976105,67.790260 198.173676,63.575562 
	C200.046555,59.983536 197.822205,52.993938 194.558334,50.136391 
	C191.426147,47.394119 192.064514,42.767845 196.357361,41.579365 
	C205.777405,38.971416 215.471924,38.669998 224.845840,41.742676 
	C229.334747,43.214092 229.537720,47.844299 225.492233,50.476315 
	C223.283981,51.913010 222.163422,53.609867 222.108994,56.125507 
	C221.874954,66.945587 221.298050,77.762756 221.872314,88.589836 
	C222.010651,91.197998 222.675018,93.232048 225.183960,94.796364 
	C228.961441,97.151611 228.780167,101.264267 224.608459,102.740898 
	C214.957733,106.156898 204.995361,106.257057 195.288956,102.948471 
	C191.308212,101.591568 191.108109,97.986404 194.246750,95.105713 
	C197.510712,92.110016 199.716217,83.163094 198.285004,79.077988 
	C197.752136,77.557007 196.692719,76.964096 195.254547,77.039711 
	C191.661575,77.228638 186.932816,75.557953 184.840698,78.674950 
	C182.481079,82.190521 183.552719,87.032578 184.571442,91.278305 
	C184.890091,92.606323 185.981491,93.419319 187.033447,94.300682 
	C190.923706,97.560013 190.468033,101.025818 185.654236,102.927803 
	C178.335098,105.819664 170.648651,105.269882 163.014648,104.564156 
	C161.536530,104.427505 160.033966,104.133881 158.636108,103.645348 
	C156.276154,102.820572 153.756760,101.957108 153.418167,98.934685 
	C153.122375,96.294144 155.145248,95.192825 157.022293,94.071068 
	C161.167328,91.593948 159.652283,87.286621 160.413147,83.251862 
z"/>
<path fill="#04A3E9" opacity="1.000000" stroke="none" 
	d="
M531.502441,55.162056 
	C535.290710,59.244335 533.236877,62.744507 530.855408,66.085831 
	C529.790894,67.579300 528.610779,68.763855 528.772522,70.893791 
	C529.245361,77.120705 525.954773,81.226952 520.820068,84.204964 
	C515.140930,87.498779 508.952057,88.179138 502.552216,88.032692 
	C500.893341,87.994736 498.418091,87.119377 498.320831,89.992477 
	C498.228546,92.719551 500.554749,93.801430 502.728882,93.772583 
	C505.688477,93.733315 508.655945,93.052048 511.588043,92.481537 
	C515.556946,91.709297 519.567688,91.692329 523.531250,92.044518 
	C531.038452,92.711586 535.504211,99.448265 533.453857,106.777367 
	C531.203186,114.822243 525.274475,119.053558 517.680115,121.137932 
	C507.354065,123.972046 496.968475,124.251053 486.903503,120.060143 
	C479.154510,116.833588 477.781921,110.735001 483.253479,104.686600 
	C484.369843,103.452538 483.957062,102.868507 483.192444,101.805992 
	C478.121094,94.758614 478.291077,92.678581 485.198883,87.094643 
	C487.469727,85.259018 486.030182,84.558929 484.990051,83.327789 
	C478.125763,75.203026 479.569611,67.144310 488.611603,61.726875 
	C495.602753,57.538162 503.219940,57.081841 510.813080,58.354599 
	C516.837036,59.364311 522.308044,59.776104 527.280823,55.576603 
	C528.366760,54.659550 529.799744,54.883926 531.502441,55.162056 
z"/>
<path fill="#03A3E9" opacity="1.000000" stroke="none" 
	d="
M465.102356,59.546814 
	C471.790222,62.686497 472.453156,68.582924 472.898773,74.458687 
	C473.225891,78.772186 473.200653,83.115280 473.248932,87.446121 
	C473.286865,90.847458 473.823639,93.905846 476.242401,96.665459 
	C478.667328,99.432137 477.744049,102.736000 474.204407,103.622429 
	C466.718872,105.497040 459.035797,105.881531 451.471588,104.161972 
	C446.645050,103.064766 446.495911,101.081100 448.753296,96.607536 
	C452.535339,89.112450 451.794373,81.182106 449.467804,73.382805 
	C449.033081,71.925537 447.706421,70.877159 445.965240,71.125130 
	C444.354675,71.354492 443.103943,72.305458 442.864227,73.954582 
	C441.791840,81.331261 440.510345,88.796982 443.779236,95.925697 
	C445.862061,100.467934 445.180206,102.839195 440.293213,103.931160 
	C433.411896,105.468742 426.418732,105.727554 419.510193,104.061096 
	C414.363922,102.819725 413.388092,99.813293 416.880890,96.065994 
	C418.399658,94.436577 418.813110,92.627975 418.888489,90.616768 
	C419.044495,86.455528 419.048218,82.287323 419.269379,78.130219 
	C419.438049,74.960052 418.916168,72.393631 415.996368,70.368195 
	C412.696075,68.078827 413.482910,65.469360 416.735718,63.824871 
	C422.540131,60.890366 428.786591,59.198765 435.162750,57.992954 
	C439.903198,57.096470 442.471924,58.902798 442.005371,65.314774 
	C448.777069,56.883976 456.447205,56.523979 465.102356,59.546814 
z"/>
<path fill="#02A3E8" opacity="1.000000" stroke="none" 
	d="
M369.254425,103.034912 
	C351.840240,96.043503 351.900238,73.090263 365.707458,63.442890 
	C378.903015,54.222858 398.700073,56.274227 406.871552,68.186783 
	C414.171814,78.829330 411.982666,91.457954 401.357300,98.772293 
	C391.568024,105.511078 380.920135,106.858810 369.254425,103.034912 
z"/>
<path fill="#03A3E8" opacity="1.000000" stroke="none" 
	d="
M253.685135,86.174797 
	C258.895966,93.614761 262.014740,94.328445 270.253998,90.118423 
	C272.783752,88.825783 275.313812,87.789734 277.341064,90.589691 
	C279.369659,93.391525 278.290131,96.175117 276.019440,98.167030 
	C268.444550,104.811974 259.451660,106.253799 249.875061,104.338089 
	C240.914948,102.545700 235.170425,96.959236 232.620132,88.214272 
	C228.361053,73.609840 239.238464,58.613499 254.453308,57.924488 
	C261.595612,57.601044 268.432281,58.200443 274.034729,63.354286 
	C276.785187,65.884483 278.957703,68.834106 279.886597,72.475945 
	C281.819061,80.052292 279.473236,83.000023 271.708069,83.002411 
	C266.711090,83.003952 261.714020,82.989029 256.717133,83.010872 
	C254.873520,83.018929 252.710846,82.750992 253.685135,86.174797 
z"/>
<path fill="#03A3E8" opacity="1.000000" stroke="none" 
	d="
M290.053955,65.262314 
	C290.083496,60.461636 289.221741,56.773205 285.153687,54.068958 
	C281.763641,51.815376 282.121307,48.029854 285.883575,46.105713 
	C293.394409,42.264374 301.561157,40.777443 309.957855,41.006596 
	C313.947174,41.115467 313.436310,44.481441 313.241119,47.026241 
	C312.273987,59.636837 311.925079,72.260529 312.181580,84.899826 
	C312.275421,89.525063 311.152252,94.224205 316.684631,97.500618 
	C319.596375,99.225037 317.243591,102.895889 314.575226,103.558731 
	C305.614899,105.784538 296.453003,106.168335 287.577240,103.203873 
	C283.265411,101.763763 283.012878,98.589584 286.752960,96.112556 
	C289.626495,94.209435 289.695312,91.378586 289.786469,88.658844 
	C290.042603,81.020004 290.010223,73.371490 290.053955,65.262314 
z"/>
<path fill="#03A3E8" opacity="1.000000" stroke="none" 
	d="
M348.161133,74.005096 
	C348.161285,79.158859 348.157684,83.814011 348.162781,88.469154 
	C348.166473,91.833023 348.234650,94.856010 352.041382,96.810204 
	C354.932343,98.294273 354.025146,102.776016 350.518097,103.612663 
	C341.544312,105.753471 332.389343,106.187294 323.524231,103.177109 
	C319.249451,101.725594 319.041382,98.594269 322.806824,96.092476 
	C325.316620,94.424965 325.556122,91.998985 325.726196,89.598732 
	C326.372681,80.474426 326.290680,71.330925 325.911530,62.195694 
	C325.782379,59.084747 324.564240,56.590065 321.853088,54.629356 
	C317.710571,51.633465 317.912476,48.046371 322.417938,45.832027 
	C329.670441,42.267612 337.505707,40.939930 345.555084,40.948723 
	C349.534424,40.953068 349.381805,43.923443 349.278839,46.621704 
	C348.936798,55.584408 347.800293,64.513855 348.161133,74.005096 
z"/>
<path fill="#040404" opacity="1.000000" stroke="none" 
	d="
M76.040894,62.046852 
	C80.559509,57.826393 84.897995,53.926762 89.038956,49.827602 
	C91.665474,47.227604 93.756500,47.375107 96.108025,50.145866 
	C98.582878,53.061916 101.276016,55.794739 103.911911,58.571430 
	C105.919792,60.686562 105.783180,62.631874 103.680717,64.591476 
	C90.403313,76.966713 77.131821,89.348328 63.878880,101.749741 
	C61.774963,103.718483 59.830166,103.811691 57.901852,101.573990 
	C57.793159,101.447845 57.694298,101.313019 57.582664,101.189651 
	C44.520390,86.756790 44.796986,91.775009 57.905598,79.013527 
	C63.751495,73.322441 69.813324,67.853165 76.040894,62.046852 
z"/>
<path fill="#050505" opacity="1.000000" stroke="none" 
	d="
M110.082932,6.917146 
	C122.200562,19.987593 133.993713,32.877701 146.016769,45.549694 
	C149.156876,48.859287 149.428116,51.323689 145.644333,54.026226 
	C144.705536,54.696754 143.851517,55.534164 143.106705,56.419521 
	C140.285767,59.772682 137.954880,59.457764 135.008224,56.209686 
	C123.606819,43.642025 112.094658,31.169313 100.369431,18.904367 
	C96.904037,15.279465 97.082703,12.591740 101.019928,10.079586 
	C103.683929,8.379819 105.064674,2.981405 110.082932,6.917146 
z"/>
<path fill="#050505" opacity="1.000000" stroke="none" 
	d="
M33.330086,135.674347 
	C24.826574,126.511398 16.687931,117.488892 8.245961,108.759735 
	C5.011146,105.414879 4.328408,102.829231 8.442392,99.926804 
	C9.519491,99.166908 10.485754,98.202560 11.353972,97.202774 
	C14.000590,94.155090 16.160069,94.751221 18.723186,97.554787 
	C30.398640,110.325569 42.153446,123.025719 54.032345,135.607162 
	C56.867241,138.609695 56.793865,140.702667 53.731544,143.436386 
	C45.925159,150.405106 47.215229,150.684082 40.038620,142.871719 
	C37.899921,140.543549 35.729752,138.244293 33.330086,135.674347 
z"/>
<path fill="#050505" opacity="1.000000" stroke="none" 
	d="
M24.799118,84.667526 
	C27.851637,81.031487 30.229746,81.412834 33.150311,84.628738 
	C44.655354,97.297234 56.281635,109.859077 68.059456,122.274048 
	C71.127441,125.508003 70.787407,127.600914 67.639130,130.440491 
	C60.721416,136.679932 60.821449,136.811172 54.595112,130.113495 
	C44.413216,119.160812 34.240726,108.199371 24.074224,97.232391 
	C18.180721,90.874870 18.189474,90.866753 24.799118,84.667526 
z"/>
<path fill="#050505" opacity="1.000000" stroke="none" 
	d="
M114.689667,40.306614 
	C120.577835,46.663528 126.078949,52.905746 131.934784,58.795261 
	C135.239746,62.119213 134.825439,64.347458 131.487259,67.330368 
	C124.683235,73.410271 124.817703,73.555908 118.477219,66.712135 
	C107.633324,55.007454 96.856552,43.239189 85.891739,31.648865 
	C83.083580,28.680506 82.831070,26.396515 86.148857,23.875422 
	C87.202293,23.074938 88.200897,22.160143 89.064201,21.159307 
	C91.898956,17.873020 94.285263,18.050264 97.188606,21.374266 
	C102.762154,27.755360 108.677483,33.837933 114.689667,40.306614 
z"/>
<path fill="#F7FAFD" opacity="1.000000" stroke="none" 
	d="
M501.476593,76.102219 
	C500.958801,72.908295 500.528168,70.084312 501.469513,67.322472 
	C501.965912,65.866089 502.939636,64.474846 504.496277,64.266434 
	C506.179962,64.041008 507.143494,65.498375 507.822906,66.837288 
	C509.723114,70.581909 509.594330,74.565163 508.758392,78.516800 
	C508.440033,80.021790 507.136932,81.516243 505.679993,81.450150 
	C502.826874,81.320702 502.359863,78.660057 501.476593,76.102219 
z"/>
<path fill="#F8FBFE" opacity="1.000000" stroke="none" 
	d="
M501.737671,114.492020 
	C500.280426,113.964745 499.159821,113.660782 498.125336,113.173889 
	C496.398773,112.361252 494.744202,111.035339 495.141754,109.078606 
	C495.635101,106.650352 497.869568,108.130600 499.304688,108.033546 
	C502.597076,107.810898 505.907501,107.869911 509.208008,107.745819 
	C510.673157,107.690727 511.932526,108.066231 512.415649,109.491241 
	C512.976624,111.145958 512.085571,112.415695 510.675446,113.170853 
	C508.004791,114.601006 505.179626,115.394585 501.737671,114.492020 
z"/>
<path fill="#F2F9FD" opacity="1.000000" stroke="none" 
	d="
M388.110107,87.731705 
	C388.164978,90.408241 388.000916,93.108932 385.544556,93.489326 
	C382.754730,93.921364 381.885376,91.101234 381.167664,88.905556 
	C379.621918,84.176514 378.264191,79.382629 378.162018,74.359032 
	C378.114929,72.044365 378.916962,69.752060 381.333588,69.332817 
	C383.411346,68.972351 384.322174,71.128189 385.010101,72.799973 
	C386.917389,77.434761 387.959625,82.275322 388.110107,87.731705 
z"/>
<path fill="#F2F8FC" opacity="1.000000" stroke="none" 
	d="
M260.985291,72.002388 
	C259.863892,76.237244 256.859711,75.015640 254.468414,74.563065 
	C252.608398,74.211037 252.744553,72.283653 253.134949,70.845505 
	C253.700882,68.760704 254.588089,66.213242 256.990082,66.284798 
	C259.876678,66.370796 260.936127,68.846390 260.985291,72.002388 
z"/>
</svg>