<?xml version="1.0" standalone="no"?>
<!DOCTYPE svg PUBLIC "-//W3C//DTD SVG 20010904//EN"
 "http://www.w3.org/TR/2001/REC-SVG-20010904/DTD/svg10.dtd">
<svg version="1.0" xmlns="http://www.w3.org/2000/svg"
 width="152.000000pt" height="152.000000pt" viewBox="0 0 152.000000 152.000000"
 preserveAspectRatio="xMidYMid meet">

<g transform="translate(0.000000,152.000000) scale(0.100000,-0.100000)"
fill="#000000" stroke="none">
<path d="M1013 1441 c-24 -21 -43 -46 -43 -56 0 -19 385 -438 407 -443 15 -4
103 74 103 90 0 9 -354 396 -392 431 -11 9 -23 17 -27 17 -3 -1 -25 -18 -48
-39z"/>
<path d="M862 1299 c-30 -29 -40 -45 -34 -56 21 -37 397 -433 412 -433 9 0 36
20 60 45 l44 44 -20 23 c-104 121 -390 418 -403 418 -9 0 -35 -19 -59 -41z"/>
<path d="M685 849 c-118 -111 -215 -208 -215 -216 0 -20 109 -133 129 -133 23
0 435 387 439 412 3 14 -14 39 -54 79 -32 33 -64 59 -71 59 -7 0 -110 -91
-228 -201z"/>
<path d="M227 672 c-20 -21 -37 -45 -37 -54 0 -23 388 -438 408 -438 10 0 36
18 60 40 32 30 41 44 34 56 -21 38 -397 434 -412 434 -9 0 -33 -17 -53 -38z"/>
<path d="M82 537 c-23 -23 -42 -46 -42 -50 0 -9 388 -429 406 -440 18 -11 104
60 104 86 0 22 -385 441 -409 445 -9 1 -35 -17 -59 -41z"/>
</g>
</svg>
